<?xml version="1.0"?>
<svg xmlns="http://www.w3.org/2000/svg" xmlns:xlink="http://www.w3.org/1999/xlink" xmlns:svgjs="http://svgjs.com/svgjs" version="1.1" width="25px" height="25px" x="0" y="0" viewBox="0 0 512.002 512.002" style="enable-background:new 0 0 25 25" xml:space="preserve"><g><g xmlns="http://www.w3.org/2000/svg"><path clip-rule="evenodd" d="m256.001 290c63.518 0 115-51.482 115-115s-51.482-115-115-115-115 51.482-115 115 51.482 115 115 115zm25 48.117v54.708h59.177v50h-59.177v59.176h-50v-59.176h-59.177v-50h59.177v-54.708c-79.26-12.049-140-80.494-140-163.117 0-91.122 73.878-165 165-165s165 73.879 165 165c0 82.623-60.74 151.068-140 163.117z" fill="#a3195b" fill-rule="evenodd" data-original="#a3195b" style=""/><g><path d="m256.001 50c-68.925 0-125 56.075-125 125 0 50.67 30.23 95.986 77.015 115.45 5.1 2.119 10.953-.293 13.074-5.393 2.122-5.099-.292-10.952-5.392-13.074-39.302-16.35-64.697-54.418-64.697-96.983 0-57.897 47.103-105 105-105s105 47.103 105 105c0 42.568-25.397 80.638-64.703 96.986-5.1 2.121-7.514 7.975-5.393 13.074 1.599 3.844 5.318 6.162 9.237 6.162 1.28 0 2.582-.248 3.836-.77 46.79-19.462 77.022-64.779 77.022-115.453.001-68.924-56.074-124.999-124.999-124.999z" fill="#a3195b" data-original="#a3195b" style=""/><path d="m256.001 0c-96.495 0-175 78.505-175 175 0 42.104 15.172 82.795 42.722 114.574 25.371 29.267 59.653 49.266 97.278 56.92v36.331h-49.177c-5.523 0-10 4.478-10 10v50c0 5.522 4.477 10 10 10h49.177v49.177c0 5.522 4.477 10 10 10h50c5.523 0 10-4.478 10-10v-49.177h49.177c5.523 0 10-4.478 10-10v-50c0-5.522-4.477-10-10-10h-49.177v-36.331c37.625-7.654 71.908-27.653 97.278-56.92 27.55-31.779 42.722-72.47 42.722-114.574 0-96.495-78.505-175-175-175zm23.497 328.23c-4.886.743-8.497 4.944-8.497 9.887v54.708c0 5.522 4.477 10 10 10h49.177v30h-49.177c-5.523 0-10 4.478-10 10v49.177h-30v-49.177c0-5.522-4.477-10-10-10h-49.177v-30h49.177c5.523 0 10-4.478 10-10v-54.708c0-4.942-3.611-9.144-8.497-9.887-74.969-11.396-131.503-77.271-131.503-153.23 0-85.468 69.533-155 155-155s155 69.532 155 155c0 75.959-56.534 141.834-131.503 153.23z" fill="#a3195b" data-original="#a3195b" style=""/><path d="m256.001 280h-.007c-5.523 0-9.996 4.478-9.996 10s4.48 10 10.003 10 10-4.478 10-10-4.477-10-10-10z" fill="#a3195b" data-original="#a3195b" style=""/></g></g></g></svg>
